<?xml version="1.0" encoding="utf-8"?>
<!-- Generator: Adobe Illustrator 23.0.3, SVG Export Plug-In . SVG Version: 6.00 Build 0)  -->
<svg version="1.1" id="Capa_1" xmlns="http://www.w3.org/2000/svg" xmlns:xlink="http://www.w3.org/1999/xlink" x="0px" y="0px"
	 viewBox="0 0 100 75" style="enable-background:new 0 0 100 75;" xml:space="preserve">
<style type="text/css">
	.st0{fill:#FFFFFF;}
</style>
<g>
	<path class="st0" d="M17.4,56.7l16.4-16.4l-6.8-6.8L21.4,39c0-0.4,0-0.7,0-1.1C21.4,22.1,34.2,9.4,50,9.4c7.8,0,14.8,3.1,20,8.1
		l6.3-6.3l0.2-0.1C69.7,4.3,60.3,0.2,50,0.2c-20.9,0-37.8,16.9-37.8,37.8V38l-4.5-4.5l-6.8,6.8l16.2,16.2l0.1,0.1H17.4L17.4,56.7z"
		/>
	<path class="st0" d="M82.7,18.3L66.3,34.6l6.8,6.8l5.5-5.5c0,0.4,0,0.7,0,1.1c0,15.8-12.8,28.6-28.6,28.6c-7.8,0-14.8-3.1-20-8.1
		l-6.3,6.3L23.6,64c6.8,6.7,16.2,10.8,26.5,10.8c20.9,0,37.8-16.9,37.8-37.8V37l4.5,4.5l6.8-6.8L82.9,18.4l-0.1-0.1H82.7L82.7,18.3z
		"/>
</g>
</svg>
